# xmcd CD database file
#
# Track frame offsets:
#	150
#	12975
#	25660
#	41890
#	55278
#	68757
#	83809
#	98620
#	114533
#	129120
#	143427
#	159041
#	173645
#	185319
#	198108
#	210480
#	221097
#	232655
#	243128
#	254828
#
# Disc length: 3553 seconds
#
# Revision: 2
# Processed by: cddbd v1.5.1PL0 Copyright (c) Steve Scherf et al.
# Submitted via: CDex 1.51
#
DISCID=f90ddf14
DTITLE=Various Artist - The World of Square Dance [CD 2)
DYEAR=1900
DGENRE=
TTITLE0=If The Devil Danced In Empty Pockets
TTITLE1=Im In A Hurry (And Don't Know Why)
TTITLE2=Queen Of Memphis
TTITLE3=Burn Me Down
TTITLE4=Papa Loved Mama
TTITLE5=Wild Man
TTITLE6=Baby's Got Her Blue Jeans On
TTITLE7=A Jukebox With A Country Song
TTITLE8=Leavin's Been A Long Time Comin'
TTITLE9=Gonna Take A Lot Of River
TTITLE10=Oh Girl You Know Where To Find Me
TTITLE11=Bubba Shot The Jukebox
TTITLE12=Whatcha Going To Do With A Cowboy
TTITLE13=My Next Broken Heart
TTITLE14=What Part Of No
TTITLE15=One More Payment
TTITLE16=I Want You Bad (And That Ain't Good)
TTITLE17=Against The Grain
TTITLE18=Boom! It Was Over Just Like That
TTITLE19=The Whiskey Ain't Workin'
EXTD=
EXTT0=
EXTT1=
EXTT2=
EXTT3=
EXTT4=
EXTT5=
EXTT6=
EXTT7=
EXTT8=
EXTT9=
EXTT10=
EXTT11=
EXTT12=
EXTT13=
EXTT14=
EXTT15=
EXTT16=
EXTT17=
EXTT18=
EXTT19=
PLAYORDER=
